<svg xmlns="http://www.w3.org/2000/svg" x="0px" y="0px" width="50" height="50" viewBox="0 0 100 100">
<path fill="#ee3e54" d="M13 27A2 2 0 1 0 13 31A2 2 0 1 0 13 27Z"></path><path fill="#f1bc19" d="M77 12A1 1 0 1 0 77 14A1 1 0 1 0 77 12Z"></path><path fill="#fce0a2" d="M50 13A37 37 0 1 0 50 87A37 37 0 1 0 50 13Z"></path><path fill="#f1bc19" d="M83 11A4 4 0 1 0 83 19A4 4 0 1 0 83 11Z"></path><path fill="#ee3e54" d="M87 22A2 2 0 1 0 87 26A2 2 0 1 0 87 22Z"></path><path fill="#fbcd59" d="M81 74A2 2 0 1 0 81 78 2 2 0 1 0 81 74zM15 59A4 4 0 1 0 15 67 4 4 0 1 0 15 59z"></path><path fill="#ee3e54" d="M25 85A2 2 0 1 0 25 89A2 2 0 1 0 25 85Z"></path><path fill="#fff" d="M18.5 51A2.5 2.5 0 1 0 18.5 56A2.5 2.5 0 1 0 18.5 51Z"></path><path fill="#f1bc19" d="M21 66A1 1 0 1 0 21 68A1 1 0 1 0 21 66Z"></path><path fill="#fff" d="M80 33A1 1 0 1 0 80 35A1 1 0 1 0 80 33Z"></path><g><path fill="#78a2d2" d="M50 25.625A24.25 24.25 0 1 0 50 74.125A24.25 24.25 0 1 0 50 25.625Z"></path><path fill="#472b29" d="M50,74.825c-13.758,0-24.95-11.192-24.95-24.95S36.242,24.925,50,24.925s24.95,11.192,24.95,24.95 S63.758,74.825,50,74.825z M50,26.325c-12.985,0-23.55,10.564-23.55,23.55S37.015,73.425,50,73.425s23.55-10.564,23.55-23.55 S62.985,26.325,50,26.325z"></path></g><g><path fill="#fff" d="M50 29.875A20 20 0 1 0 50 69.875A20 20 0 1 0 50 29.875Z"></path></g><g><path fill="#472b29" d="M69.424,44.625c-0.214,0-0.412-0.138-0.478-0.353c-0.089-0.288-0.184-0.572-0.284-0.854 c-0.39-1.089-0.885-2.155-1.47-3.169c-0.139-0.239-0.057-0.545,0.183-0.683c0.238-0.139,0.544-0.058,0.683,0.183 c0.616,1.065,1.136,2.187,1.546,3.331c0.106,0.297,0.205,0.595,0.298,0.896c0.082,0.265-0.066,0.544-0.33,0.625 C69.522,44.618,69.473,44.625,69.424,44.625z"></path></g><g><path fill="#472b29" d="M50,70.75c-11.511,0-20.875-9.337-20.875-20.813S38.489,29.125,50,29.125 c5.975,0,11.674,2.56,15.636,7.023c0.3,0.337,0.588,0.685,0.865,1.041c0.17,0.218,0.131,0.531-0.088,0.701 c-0.217,0.169-0.531,0.131-0.701-0.088c-0.264-0.339-0.538-0.669-0.823-0.99c-3.773-4.25-9.199-6.688-14.889-6.688 c-10.959,0-19.875,8.888-19.875,19.813S39.041,69.75,50,69.75s19.875-8.888,19.875-19.813c0-0.992-0.074-1.992-0.222-2.973 c-0.041-0.273,0.146-0.527,0.42-0.568c0.273-0.033,0.527,0.146,0.568,0.42c0.155,1.029,0.233,2.079,0.233,3.121 C70.875,61.413,61.511,70.75,50,70.75z"></path></g><g><path fill="#472b29" d="M47,44.772c0-0.289,0.133-0.543,0.397-0.765l2.172-2.958c0.194-0.255,0.415-0.382,0.663-0.382 c0.195,0,0.371,0.06,0.53,0.179S51,41.117,51,41.304V58.67c0,0.204-0.089,0.366-0.265,0.485c-0.177,0.119-0.38,0.179-0.609,0.179 c-0.247,0-0.455-0.059-0.623-0.179c-0.168-0.119-0.251-0.281-0.251-0.485V43.548l-1.059,1.657 c-0.141,0.204-0.309,0.306-0.503,0.306c-0.195,0-0.357-0.072-0.49-0.217C47.066,45.151,47,44.976,47,44.772z"></path></g>
</svg>