<svg xmlns="http://www.w3.org/2000/svg" x="0px" y="0px" width="100" height="100" viewBox="0 0 100 100">
<path fill="#ee3e54" d="M13,27c-1.105,0-2,0.895-2,2s0.895,2,2,2s2-0.895,2-2S14.105,27,13,27z"></path><path fill="#f1bc19" d="M77,12c-0.552,0-1,0.448-1,1s0.448,1,1,1s1-0.448,1-1S77.552,12,77,12z"></path><path fill="#fce0a2" d="M50,13c-20.435,0-37,16.565-37,37s16.565,37,37,37s37-16.565,37-37S70.435,13,50,13z"></path><path fill="#f1bc19" d="M83,11c-2.209,0-4,1.791-4,4s1.791,4,4,4s4-1.791,4-4S85.209,11,83,11z"></path><path fill="#ee3e54" d="M87,22c-1.105,0-2,0.895-2,2s0.895,2,2,2s2-0.895,2-2S88.105,22,87,22z"></path><path fill="#fbcd59" d="M81,74c-1.105,0-2,0.895-2,2s0.895,2,2,2s2-0.895,2-2S82.105,74,81,74z M15,59c-2.209,0-4,1.791-4,4	s1.791,4,4,4s4-1.791,4-4S17.209,59,15,59z"></path><path fill="#ee3e54" d="M25,85c-1.105,0-2,0.895-2,2s0.895,2,2,2s2-0.895,2-2S26.105,85,25,85z"></path><path fill="#fff" d="M18.5,51c-1.381,0-2.5,1.119-2.5,2.5s1.119,2.5,2.5,2.5s2.5-1.119,2.5-2.5S19.881,51,18.5,51z"></path><path fill="#f1bc19" d="M21,66c-0.552,0-1,0.448-1,1s0.448,1,1,1s1-0.448,1-1S21.552,66,21,66z"></path><path fill="#fff" d="M80,33c-0.552,0-1,0.448-1,1s0.448,1,1,1s1-0.448,1-1S80.552,33,80,33z"></path><path fill="#78a2d2" d="M50,25.625c-13.393,0-24.25,10.857-24.25,24.25S36.607,74.125,50,74.125s24.25-10.857,24.25-24.25	S63.393,25.625,50,25.625z"></path><path fill="#472b29" d="M50,74.825c-13.758,0-24.95-11.192-24.95-24.95S36.242,24.925,50,24.925s24.95,11.192,24.95,24.95	S63.758,74.825,50,74.825z M50,26.325c-12.985,0-23.55,10.564-23.55,23.55S37.015,73.425,50,73.425s23.55-10.564,23.55-23.55	S62.985,26.325,50,26.325z"></path><path fill="#fff" d="M50,29.875c-11.046,0-20,8.954-20,20s8.954,20,20,20s20-8.954,20-20S61.046,29.875,50,29.875z"></path><path fill="#472b29" d="M69.424,44.625c-0.214,0-0.412-0.138-0.478-0.353c-0.089-0.288-0.184-0.572-0.284-0.854	c-0.39-1.089-0.885-2.155-1.47-3.169c-0.139-0.239-0.057-0.545,0.183-0.683c0.238-0.139,0.544-0.058,0.683,0.183	c0.616,1.065,1.136,2.187,1.546,3.331c0.106,0.297,0.205,0.595,0.298,0.896c0.082,0.265-0.066,0.544-0.33,0.625	C69.522,44.618,69.473,44.625,69.424,44.625z"></path><path fill="#472b29" d="M50,70.75c-11.511,0-20.875-9.337-20.875-20.813S38.489,29.125,50,29.125	c5.975,0,11.674,2.56,15.636,7.023c0.3,0.337,0.588,0.685,0.865,1.041c0.17,0.218,0.131,0.531-0.088,0.701	c-0.217,0.169-0.531,0.131-0.701-0.088c-0.264-0.339-0.538-0.669-0.823-0.99c-3.773-4.25-9.199-6.688-14.889-6.688	c-10.959,0-19.875,8.888-19.875,19.813S39.041,69.75,50,69.75s19.875-8.888,19.875-19.813c0-0.992-0.074-1.992-0.222-2.973	c-0.041-0.273,0.146-0.527,0.42-0.568c0.273-0.033,0.527,0.146,0.568,0.42c0.155,1.029,0.233,2.079,0.233,3.121	C70.875,61.413,61.511,70.75,50,70.75z"></path><path fill="#472b29" d="M45.418,45.088c0-0.591,0.117-1.137,0.352-1.638c0.236-0.501,0.559-0.931,0.973-1.293	c0.413-0.361,0.895-0.644,1.446-0.85C48.739,41.103,49.34,41,49.988,41c0.696,0,1.34,0.123,1.932,0.369s1.103,0.579,1.532,0.997	s0.765,0.919,1.008,1.502s0.365,1.203,0.365,1.859c0,0.886-0.203,1.679-0.608,2.376c-0.405,0.698-0.907,1.334-1.506,1.908	c-0.601,0.575-1.256,1.108-1.97,1.601c-0.712,0.493-1.369,0.969-1.968,1.428c-0.599,0.46-1.101,0.928-1.506,1.404	c-0.405,0.476-0.608,0.985-0.608,1.527v1.527h7.755c0.161,0,0.299,0.074,0.413,0.222c0.113,0.148,0.17,0.32,0.17,0.517	s-0.057,0.374-0.17,0.529C54.712,58.922,54.573,59,54.412,59h-8.653c-0.163,0-0.329-0.057-0.498-0.172	c-0.172-0.115-0.256-0.271-0.256-0.468v-2.389c0-0.673,0.203-1.296,0.608-1.871c0.404-0.575,0.911-1.12,1.519-1.638	c0.606-0.517,1.267-1.022,1.981-1.514c0.712-0.493,1.373-1.001,1.981-1.527c0.606-0.525,1.114-1.083,1.519-1.674	c0.404-0.591,0.606-1.248,0.606-1.97c0-0.394-0.064-0.784-0.194-1.17c-0.13-0.386-0.332-0.731-0.608-1.034s-0.619-0.554-1.033-0.751	c-0.413-0.197-0.895-0.296-1.446-0.296c-0.842,0-1.543,0.238-2.102,0.714s-0.84,1.207-0.84,2.192c0,0.165-0.071,0.316-0.217,0.456	s-0.358,0.209-0.632,0.209c-0.245,0-0.425-0.074-0.548-0.222C45.478,45.728,45.418,45.465,45.418,45.088z"></path>
</svg>