<svg xmlns="http://www.w3.org/2000/svg" x="0px" y="0px" width="100" height="100" viewBox="0 0 100 100">
<path fill="#ee3e54" d="M13,27c-1.105,0-2,0.895-2,2s0.895,2,2,2s2-0.895,2-2S14.105,27,13,27z"></path><path fill="#f1bc19" d="M77,12c-0.552,0-1,0.448-1,1s0.448,1,1,1s1-0.448,1-1S77.552,12,77,12z"></path><path fill="#fce0a2" d="M50,13c-20.435,0-37,16.565-37,37s16.565,37,37,37s37-16.565,37-37S70.435,13,50,13z"></path><path fill="#f1bc19" d="M83,11c-2.209,0-4,1.791-4,4s1.791,4,4,4s4-1.791,4-4S85.209,11,83,11z"></path><path fill="#ee3e54" d="M87,22c-1.105,0-2,0.895-2,2s0.895,2,2,2s2-0.895,2-2S88.105,22,87,22z"></path><path fill="#fbcd59" d="M81,74c-1.105,0-2,0.895-2,2s0.895,2,2,2s2-0.895,2-2S82.105,74,81,74z M15,59c-2.209,0-4,1.791-4,4	s1.791,4,4,4s4-1.791,4-4S17.209,59,15,59z"></path><path fill="#ee3e54" d="M25,85c-1.105,0-2,0.895-2,2s0.895,2,2,2s2-0.895,2-2S26.105,85,25,85z"></path><path fill="#fff" d="M18.5,51c-1.381,0-2.5,1.119-2.5,2.5s1.119,2.5,2.5,2.5s2.5-1.119,2.5-2.5S19.881,51,18.5,51z"></path><path fill="#f1bc19" d="M21,66c-0.552,0-1,0.448-1,1s0.448,1,1,1s1-0.448,1-1S21.552,66,21,66z"></path><path fill="#fff" d="M80,33c-0.552,0-1,0.448-1,1s0.448,1,1,1s1-0.448,1-1S80.552,33,80,33z"></path><path fill="#78a2d2" d="M50,25.625c-13.393,0-24.25,10.857-24.25,24.25S36.607,74.125,50,74.125s24.25-10.857,24.25-24.25	S63.393,25.625,50,25.625z"></path><path fill="#472b29" d="M50,74.825c-13.758,0-24.95-11.192-24.95-24.95S36.242,24.925,50,24.925s24.95,11.192,24.95,24.95	S63.758,74.825,50,74.825z M50,26.325c-12.985,0-23.55,10.564-23.55,23.55S37.015,73.425,50,73.425s23.55-10.564,23.55-23.55	S62.985,26.325,50,26.325z"></path><path fill="#fff" d="M50,29.875c-11.046,0-20,8.954-20,20s8.954,20,20,20s20-8.954,20-20S61.046,29.875,50,29.875z"></path><path fill="#472b29" d="M69.424,44.625c-0.214,0-0.412-0.138-0.478-0.353c-0.089-0.288-0.184-0.572-0.284-0.854	c-0.39-1.089-0.885-2.155-1.47-3.169c-0.139-0.239-0.057-0.545,0.183-0.683c0.238-0.139,0.544-0.058,0.683,0.183	c0.616,1.065,1.136,2.187,1.546,3.331c0.106,0.297,0.205,0.595,0.298,0.896c0.082,0.265-0.066,0.544-0.33,0.625	C69.522,44.618,69.473,44.625,69.424,44.625z"></path><path fill="#472b29" d="M50,70.75c-11.511,0-20.875-9.337-20.875-20.813S38.489,29.125,50,29.125	c5.975,0,11.674,2.56,15.636,7.023c0.3,0.337,0.588,0.685,0.865,1.041c0.17,0.218,0.131,0.531-0.088,0.701	c-0.217,0.169-0.531,0.131-0.701-0.088c-0.264-0.339-0.538-0.669-0.823-0.99c-3.773-4.25-9.199-6.688-14.889-6.688	c-10.959,0-19.875,8.888-19.875,19.813S39.041,69.75,50,69.75s19.875-8.888,19.875-19.813c0-0.992-0.074-1.992-0.222-2.973	c-0.041-0.273,0.146-0.527,0.42-0.568c0.273-0.033,0.527,0.146,0.568,0.42c0.155,1.029,0.233,2.079,0.233,3.121	C70.875,61.413,61.511,70.75,50,70.75z"></path><path fill="#472b29" d="M49.95,57.51c1.139,0,2.011-0.293,2.614-0.879c0.602-0.586,0.903-1.514,0.903-2.784v-0.464	c0-1.123-0.314-1.945-0.939-2.467c-0.627-0.521-1.47-0.782-2.528-0.782c-0.229,0-0.391-0.069-0.488-0.207	c-0.099-0.138-0.147-0.297-0.147-0.476s0.044-0.342,0.134-0.488c0.09-0.147,0.248-0.22,0.477-0.22c0.976,0,1.728-0.22,2.259-0.659	c0.528-0.44,0.794-1.262,0.794-2.467c0-1.075-0.237-1.869-0.708-2.381c-0.473-0.513-1.222-0.769-2.248-0.769	c-0.635,0-1.156,0.085-1.563,0.256s-0.728,0.387-0.965,0.647c-0.237,0.261-0.394,0.546-0.477,0.855	c-0.081,0.31-0.121,0.595-0.121,0.855c0,0.522-0.261,0.782-0.782,0.782c-0.327,0-0.547-0.065-0.66-0.195	c-0.114-0.13-0.171-0.374-0.171-0.733c0-0.342,0.07-0.737,0.207-1.185c0.139-0.448,0.383-0.875,0.734-1.282	c0.35-0.407,0.833-0.753,1.453-1.038C48.347,41.143,49.145,41,50.121,41c0.651,0,1.255,0.078,1.809,0.232	c0.552,0.155,1.026,0.403,1.416,0.745c0.391,0.342,0.695,0.786,0.916,1.331c0.22,0.545,0.33,1.209,0.33,1.99	c0,1.124-0.193,2.024-0.574,2.699c-0.383,0.676-0.86,1.152-1.429,1.429c0.732,0.293,1.33,0.754,1.794,1.38	c0.464,0.627,0.697,1.486,0.697,2.576v0.464c0,0.928-0.134,1.722-0.404,2.381c-0.268,0.66-0.631,1.193-1.086,1.6	c-0.457,0.407-0.998,0.704-1.626,0.891C51.339,58.906,50.675,59,49.976,59c-0.864,0-1.613-0.126-2.248-0.378	c-0.635-0.252-1.16-0.574-1.576-0.965c-0.415-0.391-0.725-0.822-0.928-1.294c-0.204-0.472-0.305-0.936-0.305-1.392	c0-0.342,0.057-0.57,0.171-0.684c0.114-0.114,0.31-0.171,0.587-0.171c0.325,0,0.545,0.061,0.659,0.183s0.171,0.289,0.171,0.501	c0,0.261,0.053,0.549,0.16,0.867c0.105,0.317,0.288,0.611,0.549,0.879c0.261,0.269,0.615,0.497,1.062,0.684	C48.725,57.417,49.283,57.51,49.95,57.51z"></path>
</svg>